<mxfile host="app.diagrams.net" agent="Mozilla/5.0 (Windows NT 10.0; Win64; x64) AppleWebKit/537.36 (KHTML, like Gecko) Chrome/129.0.0.0 Safari/537.36 Edg/129.0.0.0" version="24.7.17">
  <diagram name="Page-1" id="MWQOtTKvLJTkhNEFt6Ec">
    <mxGraphModel dx="2798" dy="1368" grid="1" gridSize="10" guides="1" tooltips="1" connect="1" arrows="1" fold="1" page="1" pageScale="1" pageWidth="2339" pageHeight="3300" math="0" shadow="0">
      <root>
        <mxCell id="0" />
        <mxCell id="1" parent="0" />
        <mxCell id="hFABmme4YSGVNAjoeFIv-1" value="" style="shape=actor;whiteSpace=wrap;html=1;" parent="1" vertex="1">
          <mxGeometry x="1165" y="70" width="45" height="60" as="geometry" />
        </mxCell>
        <mxCell id="hFABmme4YSGVNAjoeFIv-6" value="" style="edgeStyle=orthogonalEdgeStyle;rounded=0;orthogonalLoop=1;jettySize=auto;html=1;" parent="1" source="hFABmme4YSGVNAjoeFIv-2" target="hFABmme4YSGVNAjoeFIv-5" edge="1">
          <mxGeometry relative="1" as="geometry">
            <Array as="points">
              <mxPoint x="1188" y="190" />
              <mxPoint x="1188" y="190" />
            </Array>
          </mxGeometry>
        </mxCell>
        <mxCell id="hFABmme4YSGVNAjoeFIv-5" value="Graphical User Interface" style="rounded=1;whiteSpace=wrap;html=1;" parent="1" vertex="1">
          <mxGeometry x="1120" y="235" width="130" height="55" as="geometry" />
        </mxCell>
        <mxCell id="hFABmme4YSGVNAjoeFIv-7" value="" style="endArrow=classic;html=1;rounded=0;exitX=0.5;exitY=1;exitDx=0;exitDy=0;entryX=0.5;entryY=0;entryDx=0;entryDy=0;" parent="1" source="hFABmme4YSGVNAjoeFIv-5" target="hFABmme4YSGVNAjoeFIv-8" edge="1">
          <mxGeometry width="50" height="50" relative="1" as="geometry">
            <mxPoint x="1160" y="470" as="sourcePoint" />
            <mxPoint x="1010" y="360" as="targetPoint" />
            <Array as="points" />
          </mxGeometry>
        </mxCell>
        <mxCell id="vV7nmmRilJvmiAkaG5LS-2" style="edgeStyle=orthogonalEdgeStyle;rounded=0;orthogonalLoop=1;jettySize=auto;html=1;entryX=0.5;entryY=0;entryDx=0;entryDy=0;" edge="1" parent="1" source="hFABmme4YSGVNAjoeFIv-8" target="hFABmme4YSGVNAjoeFIv-27">
          <mxGeometry relative="1" as="geometry" />
        </mxCell>
        <mxCell id="vV7nmmRilJvmiAkaG5LS-3" style="edgeStyle=orthogonalEdgeStyle;rounded=0;orthogonalLoop=1;jettySize=auto;html=1;exitX=1;exitY=0.5;exitDx=0;exitDy=0;" edge="1" parent="1" source="hFABmme4YSGVNAjoeFIv-8" target="hFABmme4YSGVNAjoeFIv-26">
          <mxGeometry relative="1" as="geometry" />
        </mxCell>
        <mxCell id="vV7nmmRilJvmiAkaG5LS-4" style="edgeStyle=orthogonalEdgeStyle;rounded=0;orthogonalLoop=1;jettySize=auto;html=1;entryX=0.25;entryY=0;entryDx=0;entryDy=0;" edge="1" parent="1" source="hFABmme4YSGVNAjoeFIv-8" target="hFABmme4YSGVNAjoeFIv-28">
          <mxGeometry relative="1" as="geometry" />
        </mxCell>
        <mxCell id="vV7nmmRilJvmiAkaG5LS-31" style="edgeStyle=orthogonalEdgeStyle;rounded=0;orthogonalLoop=1;jettySize=auto;html=1;entryX=0.5;entryY=0;entryDx=0;entryDy=0;" edge="1" parent="1" source="hFABmme4YSGVNAjoeFIv-8" target="hFABmme4YSGVNAjoeFIv-21">
          <mxGeometry relative="1" as="geometry" />
        </mxCell>
        <mxCell id="vV7nmmRilJvmiAkaG5LS-32" style="edgeStyle=orthogonalEdgeStyle;rounded=0;orthogonalLoop=1;jettySize=auto;html=1;entryX=0.5;entryY=0;entryDx=0;entryDy=0;" edge="1" parent="1" source="hFABmme4YSGVNAjoeFIv-8" target="hFABmme4YSGVNAjoeFIv-17">
          <mxGeometry relative="1" as="geometry" />
        </mxCell>
        <mxCell id="vV7nmmRilJvmiAkaG5LS-33" style="edgeStyle=orthogonalEdgeStyle;rounded=0;orthogonalLoop=1;jettySize=auto;html=1;entryX=0.5;entryY=0;entryDx=0;entryDy=0;" edge="1" parent="1" source="hFABmme4YSGVNAjoeFIv-8" target="hFABmme4YSGVNAjoeFIv-16">
          <mxGeometry relative="1" as="geometry">
            <Array as="points">
              <mxPoint x="1185" y="500" />
              <mxPoint x="960" y="500" />
            </Array>
          </mxGeometry>
        </mxCell>
        <mxCell id="vV7nmmRilJvmiAkaG5LS-35" style="edgeStyle=orthogonalEdgeStyle;rounded=0;orthogonalLoop=1;jettySize=auto;html=1;" edge="1" parent="1" source="hFABmme4YSGVNAjoeFIv-8" target="hFABmme4YSGVNAjoeFIv-15">
          <mxGeometry relative="1" as="geometry">
            <Array as="points">
              <mxPoint x="1185" y="500" />
              <mxPoint x="800" y="500" />
            </Array>
          </mxGeometry>
        </mxCell>
        <mxCell id="hFABmme4YSGVNAjoeFIv-8" value="API Gateway" style="rounded=1;whiteSpace=wrap;html=1;" parent="1" vertex="1">
          <mxGeometry x="1125" y="380" width="120" height="40" as="geometry" />
        </mxCell>
        <mxCell id="vV7nmmRilJvmiAkaG5LS-5" style="edgeStyle=orthogonalEdgeStyle;rounded=0;orthogonalLoop=1;jettySize=auto;html=1;entryX=0.5;entryY=0;entryDx=0;entryDy=0;" edge="1" parent="1" source="hFABmme4YSGVNAjoeFIv-26" target="hFABmme4YSGVNAjoeFIv-28">
          <mxGeometry relative="1" as="geometry" />
        </mxCell>
        <mxCell id="vV7nmmRilJvmiAkaG5LS-8" style="edgeStyle=orthogonalEdgeStyle;rounded=0;orthogonalLoop=1;jettySize=auto;html=1;" edge="1" parent="1" source="hFABmme4YSGVNAjoeFIv-26" target="hFABmme4YSGVNAjoeFIv-27">
          <mxGeometry relative="1" as="geometry" />
        </mxCell>
        <mxCell id="hFABmme4YSGVNAjoeFIv-26" value="TensorFlow Models" style="rounded=1;whiteSpace=wrap;html=1;" parent="1" vertex="1">
          <mxGeometry x="1580" y="606" width="120" height="60" as="geometry" />
        </mxCell>
        <mxCell id="vV7nmmRilJvmiAkaG5LS-9" style="edgeStyle=orthogonalEdgeStyle;rounded=0;orthogonalLoop=1;jettySize=auto;html=1;entryX=0.75;entryY=0;entryDx=0;entryDy=0;" edge="1" parent="1" source="hFABmme4YSGVNAjoeFIv-27" target="hFABmme4YSGVNAjoeFIv-28">
          <mxGeometry relative="1" as="geometry">
            <Array as="points">
              <mxPoint x="1800" y="720" />
              <mxPoint x="1660" y="720" />
              <mxPoint x="1660" y="760" />
              <mxPoint x="1560" y="760" />
            </Array>
          </mxGeometry>
        </mxCell>
        <mxCell id="hFABmme4YSGVNAjoeFIv-27" value="PyTorch Models" style="rounded=1;whiteSpace=wrap;html=1;" parent="1" vertex="1">
          <mxGeometry x="1740" y="606" width="120" height="60" as="geometry" />
        </mxCell>
        <mxCell id="hFABmme4YSGVNAjoeFIv-28" value="Private Cloud Network" style="rounded=0;whiteSpace=wrap;html=1;" parent="1" vertex="1">
          <mxGeometry x="1440" y="815" width="160" height="60" as="geometry" />
        </mxCell>
        <mxCell id="hFABmme4YSGVNAjoeFIv-29" value="Prometheus" style="rounded=1;whiteSpace=wrap;html=1;" parent="1" vertex="1">
          <mxGeometry x="134" y="720" width="120" height="60" as="geometry" />
        </mxCell>
        <mxCell id="hFABmme4YSGVNAjoeFIv-30" value="Grafana" style="rounded=1;whiteSpace=wrap;html=1;" parent="1" vertex="1">
          <mxGeometry x="294" y="720" width="120" height="60" as="geometry" />
        </mxCell>
        <mxCell id="hFABmme4YSGVNAjoeFIv-31" value="ELK Stack" style="rounded=1;whiteSpace=wrap;html=1;" parent="1" vertex="1">
          <mxGeometry x="454" y="720" width="120" height="60" as="geometry" />
        </mxCell>
        <mxCell id="hFABmme4YSGVNAjoeFIv-38" value="Monitoring and Logging" style="swimlane;whiteSpace=wrap;html=1;" parent="1" vertex="1">
          <mxGeometry x="70" y="640" width="560" height="190" as="geometry" />
        </mxCell>
        <mxCell id="hFABmme4YSGVNAjoeFIv-39" value="Frontend" style="swimlane;whiteSpace=wrap;html=1;startSize=23;" parent="1" vertex="1">
          <mxGeometry x="790" y="35" width="780" height="415" as="geometry" />
        </mxCell>
        <mxCell id="hFABmme4YSGVNAjoeFIv-2" value="User" style="text;html=1;align=center;verticalAlign=middle;whiteSpace=wrap;rounded=0;" parent="hFABmme4YSGVNAjoeFIv-39" vertex="1">
          <mxGeometry x="335" y="95" width="122.5" height="30" as="geometry" />
        </mxCell>
        <mxCell id="hFABmme4YSGVNAjoeFIv-40" value="Database" style="swimlane;whiteSpace=wrap;html=1;" parent="1" vertex="1">
          <mxGeometry x="1680" y="760" width="200" height="170" as="geometry" />
        </mxCell>
        <mxCell id="hFABmme4YSGVNAjoeFIv-25" value="RDBMS" style="shape=cylinder3;whiteSpace=wrap;html=1;boundedLbl=1;backgroundOutline=1;size=15;" parent="hFABmme4YSGVNAjoeFIv-40" vertex="1">
          <mxGeometry x="70" y="50" width="60" height="80" as="geometry" />
        </mxCell>
        <mxCell id="hFABmme4YSGVNAjoeFIv-41" value="AI Engine" style="swimlane;whiteSpace=wrap;html=1;" parent="1" vertex="1">
          <mxGeometry x="1550" y="570" width="330" height="120" as="geometry" />
        </mxCell>
        <mxCell id="hFABmme4YSGVNAjoeFIv-42" value="Security Layer" style="swimlane;whiteSpace=wrap;html=1;startSize=23;" parent="1" vertex="1">
          <mxGeometry x="920" y="1010" width="960" height="200" as="geometry" />
        </mxCell>
        <mxCell id="hFABmme4YSGVNAjoeFIv-24" value="AES-256-GCM Encryption" style="rounded=1;whiteSpace=wrap;html=1;" parent="hFABmme4YSGVNAjoeFIv-42" vertex="1">
          <mxGeometry x="790" y="70" width="120" height="60" as="geometry" />
        </mxCell>
        <mxCell id="hFABmme4YSGVNAjoeFIv-22" value="OAuth 2.0" style="rounded=1;whiteSpace=wrap;html=1;" parent="hFABmme4YSGVNAjoeFIv-42" vertex="1">
          <mxGeometry x="50" y="70" width="120" height="60" as="geometry" />
        </mxCell>
        <mxCell id="hFABmme4YSGVNAjoeFIv-23" value="JWT Tokens" style="rounded=1;whiteSpace=wrap;html=1;" parent="hFABmme4YSGVNAjoeFIv-42" vertex="1">
          <mxGeometry x="220" y="70" width="120" height="60" as="geometry" />
        </mxCell>
        <mxCell id="hFABmme4YSGVNAjoeFIv-43" value="Orchestration" style="swimlane;whiteSpace=wrap;html=1;" parent="1" vertex="1">
          <mxGeometry x="700" y="520" width="670" height="380" as="geometry" />
        </mxCell>
        <mxCell id="hFABmme4YSGVNAjoeFIv-17" value="Content Generation Service" style="rounded=1;whiteSpace=wrap;html=1;" parent="hFABmme4YSGVNAjoeFIv-43" vertex="1">
          <mxGeometry x="360" y="60" width="120" height="60" as="geometry" />
        </mxCell>
        <mxCell id="hFABmme4YSGVNAjoeFIv-21" value="Data Analytics Service" style="rounded=1;whiteSpace=wrap;html=1;" parent="hFABmme4YSGVNAjoeFIv-43" vertex="1">
          <mxGeometry x="520" y="60" width="120" height="60" as="geometry" />
        </mxCell>
        <mxCell id="vV7nmmRilJvmiAkaG5LS-58" style="edgeStyle=orthogonalEdgeStyle;rounded=0;orthogonalLoop=1;jettySize=auto;html=1;" edge="1" parent="hFABmme4YSGVNAjoeFIv-43" source="hFABmme4YSGVNAjoeFIv-16">
          <mxGeometry relative="1" as="geometry">
            <mxPoint x="880" y="130" as="targetPoint" />
            <Array as="points">
              <mxPoint x="330" y="90" />
              <mxPoint x="330" y="130" />
              <mxPoint x="880" y="130" />
            </Array>
          </mxGeometry>
        </mxCell>
        <mxCell id="hFABmme4YSGVNAjoeFIv-16" value="Task Automation Service" style="rounded=1;whiteSpace=wrap;html=1;" parent="hFABmme4YSGVNAjoeFIv-43" vertex="1">
          <mxGeometry x="200" y="60" width="120" height="60" as="geometry" />
        </mxCell>
        <mxCell id="vV7nmmRilJvmiAkaG5LS-42" style="edgeStyle=orthogonalEdgeStyle;rounded=0;orthogonalLoop=1;jettySize=auto;html=1;" edge="1" parent="hFABmme4YSGVNAjoeFIv-43">
          <mxGeometry relative="1" as="geometry">
            <mxPoint x="-340" y="200" as="targetPoint" />
            <mxPoint x="-20" y="90" as="sourcePoint" />
          </mxGeometry>
        </mxCell>
        <mxCell id="vV7nmmRilJvmiAkaG5LS-43" style="edgeStyle=orthogonalEdgeStyle;rounded=0;orthogonalLoop=1;jettySize=auto;html=1;" edge="1" parent="hFABmme4YSGVNAjoeFIv-43">
          <mxGeometry relative="1" as="geometry">
            <mxPoint x="-180" y="200" as="targetPoint" />
            <mxPoint x="20" y="90" as="sourcePoint" />
            <Array as="points">
              <mxPoint x="-180" y="91" />
            </Array>
          </mxGeometry>
        </mxCell>
        <mxCell id="vV7nmmRilJvmiAkaG5LS-47" style="edgeStyle=orthogonalEdgeStyle;rounded=0;orthogonalLoop=1;jettySize=auto;html=1;entryX=0.5;entryY=0;entryDx=0;entryDy=0;" edge="1" parent="hFABmme4YSGVNAjoeFIv-43" target="hFABmme4YSGVNAjoeFIv-33">
          <mxGeometry relative="1" as="geometry">
            <mxPoint x="100" y="140" as="sourcePoint" />
          </mxGeometry>
        </mxCell>
        <mxCell id="hFABmme4YSGVNAjoeFIv-15" value="Authentication Service" style="rounded=1;whiteSpace=wrap;html=1;" parent="hFABmme4YSGVNAjoeFIv-43" vertex="1">
          <mxGeometry x="40" y="60" width="120" height="60" as="geometry" />
        </mxCell>
        <mxCell id="vV7nmmRilJvmiAkaG5LS-20" value="" style="endArrow=none;html=1;rounded=0;" edge="1" parent="hFABmme4YSGVNAjoeFIv-43">
          <mxGeometry width="50" height="50" relative="1" as="geometry">
            <mxPoint x="20" y="140" as="sourcePoint" />
            <mxPoint x="660" y="140" as="targetPoint" />
          </mxGeometry>
        </mxCell>
        <mxCell id="vV7nmmRilJvmiAkaG5LS-21" value="" style="endArrow=none;html=1;rounded=0;" edge="1" parent="hFABmme4YSGVNAjoeFIv-43">
          <mxGeometry width="50" height="50" relative="1" as="geometry">
            <mxPoint x="20" y="140" as="sourcePoint" />
            <mxPoint x="20" y="40" as="targetPoint" />
          </mxGeometry>
        </mxCell>
        <mxCell id="vV7nmmRilJvmiAkaG5LS-24" value="Backend" style="text;html=1;align=center;verticalAlign=middle;whiteSpace=wrap;rounded=0;" vertex="1" parent="hFABmme4YSGVNAjoeFIv-43">
          <mxGeometry x="305" y="30" width="60" height="30" as="geometry" />
        </mxCell>
        <mxCell id="vV7nmmRilJvmiAkaG5LS-48" style="edgeStyle=orthogonalEdgeStyle;rounded=0;orthogonalLoop=1;jettySize=auto;html=1;" edge="1" parent="hFABmme4YSGVNAjoeFIv-43" source="hFABmme4YSGVNAjoeFIv-33">
          <mxGeometry relative="1" as="geometry">
            <mxPoint x="100" y="280" as="targetPoint" />
          </mxGeometry>
        </mxCell>
        <mxCell id="hFABmme4YSGVNAjoeFIv-33" value="Docker Containers" style="rounded=1;whiteSpace=wrap;html=1;" parent="hFABmme4YSGVNAjoeFIv-43" vertex="1">
          <mxGeometry x="40" y="170" width="120" height="60" as="geometry" />
        </mxCell>
        <mxCell id="hFABmme4YSGVNAjoeFIv-34" value="Kubernetes" style="rounded=1;whiteSpace=wrap;html=1;" parent="hFABmme4YSGVNAjoeFIv-43" vertex="1">
          <mxGeometry x="40" y="280" width="120" height="60" as="geometry" />
        </mxCell>
        <mxCell id="vV7nmmRilJvmiAkaG5LS-11" style="edgeStyle=orthogonalEdgeStyle;rounded=0;orthogonalLoop=1;jettySize=auto;html=1;exitX=1;exitY=0.75;exitDx=0;exitDy=0;entryX=0;entryY=0;entryDx=0;entryDy=52.5;entryPerimeter=0;" edge="1" parent="1" source="hFABmme4YSGVNAjoeFIv-28" target="hFABmme4YSGVNAjoeFIv-25">
          <mxGeometry relative="1" as="geometry">
            <mxPoint x="1730" y="844" as="targetPoint" />
            <Array as="points">
              <mxPoint x="1640" y="860" />
              <mxPoint x="1640" y="863" />
            </Array>
          </mxGeometry>
        </mxCell>
        <mxCell id="vV7nmmRilJvmiAkaG5LS-13" style="edgeStyle=orthogonalEdgeStyle;rounded=0;orthogonalLoop=1;jettySize=auto;html=1;entryX=0;entryY=0;entryDx=0;entryDy=27.5;entryPerimeter=0;" edge="1" parent="1" source="hFABmme4YSGVNAjoeFIv-26" target="hFABmme4YSGVNAjoeFIv-25">
          <mxGeometry relative="1" as="geometry">
            <Array as="points">
              <mxPoint x="1640" y="740" />
              <mxPoint x="1725" y="740" />
              <mxPoint x="1725" y="838" />
            </Array>
          </mxGeometry>
        </mxCell>
        <mxCell id="vV7nmmRilJvmiAkaG5LS-14" style="edgeStyle=orthogonalEdgeStyle;rounded=0;orthogonalLoop=1;jettySize=auto;html=1;entryX=0.592;entryY=-0.217;entryDx=0;entryDy=0;entryPerimeter=0;" edge="1" parent="1" source="hFABmme4YSGVNAjoeFIv-25" target="hFABmme4YSGVNAjoeFIv-24">
          <mxGeometry relative="1" as="geometry" />
        </mxCell>
        <mxCell id="vV7nmmRilJvmiAkaG5LS-15" style="edgeStyle=orthogonalEdgeStyle;rounded=0;orthogonalLoop=1;jettySize=auto;html=1;entryX=1;entryY=0;entryDx=0;entryDy=52.5;entryPerimeter=0;" edge="1" parent="1" source="hFABmme4YSGVNAjoeFIv-27" target="hFABmme4YSGVNAjoeFIv-25">
          <mxGeometry relative="1" as="geometry" />
        </mxCell>
        <mxCell id="vV7nmmRilJvmiAkaG5LS-22" value="" style="endArrow=none;html=1;rounded=0;" edge="1" parent="1" source="vV7nmmRilJvmiAkaG5LS-24">
          <mxGeometry width="50" height="50" relative="1" as="geometry">
            <mxPoint x="720" y="560" as="sourcePoint" />
            <mxPoint x="1360" y="560" as="targetPoint" />
          </mxGeometry>
        </mxCell>
        <mxCell id="vV7nmmRilJvmiAkaG5LS-23" value="" style="endArrow=none;html=1;rounded=0;" edge="1" parent="1">
          <mxGeometry width="50" height="50" relative="1" as="geometry">
            <mxPoint x="1360" y="660" as="sourcePoint" />
            <mxPoint x="1360" y="560" as="targetPoint" />
          </mxGeometry>
        </mxCell>
        <mxCell id="vV7nmmRilJvmiAkaG5LS-28" value="" style="endArrow=none;html=1;rounded=0;" edge="1" parent="1" target="vV7nmmRilJvmiAkaG5LS-24">
          <mxGeometry width="50" height="50" relative="1" as="geometry">
            <mxPoint x="720" y="560" as="sourcePoint" />
            <mxPoint x="1360" y="560" as="targetPoint" />
          </mxGeometry>
        </mxCell>
        <mxCell id="vV7nmmRilJvmiAkaG5LS-36" style="edgeStyle=orthogonalEdgeStyle;rounded=0;orthogonalLoop=1;jettySize=auto;html=1;entryX=0.5;entryY=0;entryDx=0;entryDy=0;" edge="1" parent="1" target="hFABmme4YSGVNAjoeFIv-29">
          <mxGeometry relative="1" as="geometry">
            <mxPoint x="720" y="610" as="sourcePoint" />
            <Array as="points">
              <mxPoint x="194" y="611" />
            </Array>
          </mxGeometry>
        </mxCell>
        <mxCell id="vV7nmmRilJvmiAkaG5LS-49" style="edgeStyle=orthogonalEdgeStyle;rounded=0;orthogonalLoop=1;jettySize=auto;html=1;" edge="1" parent="1" source="hFABmme4YSGVNAjoeFIv-15">
          <mxGeometry relative="1" as="geometry">
            <mxPoint x="1026" y="1080" as="targetPoint" />
            <Array as="points">
              <mxPoint x="880" y="610" />
              <mxPoint x="880" y="830" />
              <mxPoint x="1026" y="830" />
            </Array>
          </mxGeometry>
        </mxCell>
        <mxCell id="vV7nmmRilJvmiAkaG5LS-53" style="edgeStyle=orthogonalEdgeStyle;rounded=0;orthogonalLoop=1;jettySize=auto;html=1;entryX=0.5;entryY=0;entryDx=0;entryDy=0;" edge="1" parent="1" source="hFABmme4YSGVNAjoeFIv-15" target="hFABmme4YSGVNAjoeFIv-23">
          <mxGeometry relative="1" as="geometry">
            <Array as="points">
              <mxPoint x="880" y="610" />
              <mxPoint x="880" y="830" />
              <mxPoint x="1200" y="830" />
            </Array>
          </mxGeometry>
        </mxCell>
        <mxCell id="vV7nmmRilJvmiAkaG5LS-54" style="edgeStyle=orthogonalEdgeStyle;rounded=0;orthogonalLoop=1;jettySize=auto;html=1;entryX=0;entryY=0.5;entryDx=0;entryDy=0;" edge="1" parent="1" source="hFABmme4YSGVNAjoeFIv-15" target="hFABmme4YSGVNAjoeFIv-28">
          <mxGeometry relative="1" as="geometry">
            <Array as="points">
              <mxPoint x="830" y="680" />
              <mxPoint x="1280" y="680" />
              <mxPoint x="1280" y="845" />
            </Array>
          </mxGeometry>
        </mxCell>
        <mxCell id="vV7nmmRilJvmiAkaG5LS-55" style="edgeStyle=orthogonalEdgeStyle;rounded=0;orthogonalLoop=1;jettySize=auto;html=1;entryX=0;entryY=0.5;entryDx=0;entryDy=0;" edge="1" parent="1" source="hFABmme4YSGVNAjoeFIv-16" target="hFABmme4YSGVNAjoeFIv-28">
          <mxGeometry relative="1" as="geometry">
            <Array as="points">
              <mxPoint x="960" y="680" />
              <mxPoint x="1280" y="680" />
              <mxPoint x="1280" y="845" />
            </Array>
          </mxGeometry>
        </mxCell>
        <mxCell id="vV7nmmRilJvmiAkaG5LS-56" style="edgeStyle=orthogonalEdgeStyle;rounded=0;orthogonalLoop=1;jettySize=auto;html=1;entryX=0;entryY=0.5;entryDx=0;entryDy=0;" edge="1" parent="1" source="hFABmme4YSGVNAjoeFIv-17" target="hFABmme4YSGVNAjoeFIv-28">
          <mxGeometry relative="1" as="geometry">
            <Array as="points">
              <mxPoint x="1120" y="680" />
              <mxPoint x="1280" y="680" />
              <mxPoint x="1280" y="845" />
            </Array>
          </mxGeometry>
        </mxCell>
        <mxCell id="vV7nmmRilJvmiAkaG5LS-57" style="edgeStyle=orthogonalEdgeStyle;rounded=0;orthogonalLoop=1;jettySize=auto;html=1;entryX=0;entryY=0.5;entryDx=0;entryDy=0;" edge="1" parent="1" source="hFABmme4YSGVNAjoeFIv-21" target="hFABmme4YSGVNAjoeFIv-28">
          <mxGeometry relative="1" as="geometry">
            <Array as="points">
              <mxPoint x="1280" y="845" />
            </Array>
          </mxGeometry>
        </mxCell>
      </root>
    </mxGraphModel>
  </diagram>
</mxfile>
